<svg aria-hidden="true" style="position: absolute; width: 0; height: 0; overflow: hidden;" version="1.1" xmlns="http://www.w3.org/2000/svg" xmlns:xlink="http://www.w3.org/1999/xlink">
<defs>
<symbol id="icon-frame" viewBox="0 0 128 32">
<path fill="#dcca87" style="fill: var(--color1, #dcca87)" d="M107.203 30.4c11.469 0 20.797-6.461 20.797-14.4s-9.328-14.4-20.8-14.4c-10.845 0-19.776 5.779-20.707 13.126h-14.966v-3.030h-71.526v8.608h71.53v-3.030h14.966c0.934 7.347 9.862 13.126 20.704 13.126zM68.768 17.754h-66.006v-3.507h66.006v3.507zM89.171 16c0-6.534 8.090-11.853 18.035-11.853 9.942 0 18.032 5.318 18.032 11.853s-8.090 11.853-18.035 11.853c-9.942 0-18.032-5.318-18.032-11.853z"></path>
</symbol>
<symbol id="icon-twitter" viewBox="0 0 32 32">
      <path d="M32.013 6.081A13.28 13.28 0 0 1 28.3 7.11l-.068.007a6.559 6.559 0 0 0 2.874-3.581l.013-.046a12.87 12.87 0 0 1-4.078 1.574l-.084.014a6.563 6.563 0 0 0-11.353 4.485c0 .52.044 1.02.152 1.497A18.563 18.563 0 0 1 2.255 4.229l-.027-.034a6.5 6.5 0 0 0-.896 3.312 6.568 6.568 0 0 0 2.889 5.445l.023.015a6.469 6.469 0 0 1-2.998-.823l.033.017v.072a6.596 6.596 0 0 0 5.215 6.441l.043.008a6.414 6.414 0 0 1-1.669.216h-.054.003a5.852 5.852 0 0 1-1.28-.118l.038.006c.873 2.625 3.275 4.498 6.124 4.572h.009a13.101 13.101 0 0 1-8.123 2.799H1.57h.001c-.538 0-1.054-.024-1.571-.09 2.827 1.847 6.289 2.945 10.008 2.945h.063-.003c12.077 0 18.68-10.004 18.68-18.676 0-.29-.01-.57-.024-.848a13.215 13.215 0 0 0 3.26-3.36l.03-.047z"/>
    </symbol>
    <symbol id="icon-facebook" viewBox="0 0 32 32">
      <path fill="#f4f4fd" d="M21.339 5.316h2.921V.226A36.575 36.575 0 0 0 20.133 0h-.138.007c-4.214 0-7.097 2.651-7.097 7.523v4.482H8.253v5.69h4.65v14.318h5.7V17.697h4.462l.708-5.692h-5.172V8.083c.002-1.645.444-2.769 2.737-2.769z" style="fill:var(--color2, #f4f4fd)"/>
    </symbol>
    <symbol id="icon-instagram" viewBox="0 0 32 32">
      <path fill="#f4f4fd" d="M31.981 9.412c-.074-1.701-.35-2.871-.744-3.884a7.861 7.861 0 0 0-1.849-2.84l-.001-.001A7.905 7.905 0 0 0 26.608.862l-.054-.018C25.534.45 24.373.174 22.672.1 20.955.02 20.409 0 16.067 0c-4.348 0-4.892.02-6.599.094-1.701.074-2.869.35-3.882.744a7.861 7.861 0 0 0-2.84 1.849l-.001.001A7.893 7.893 0 0 0 .919 5.467l-.018.054C.507 6.541.233 7.702.157 9.403c-.08 1.715-.1 2.261-.1 6.605 0 4.348.02 4.892.094 6.599.074 1.701.35 2.871.744 3.884a7.88 7.88 0 0 0 1.851 2.839 7.895 7.895 0 0 0 2.833 1.845c1.02.394 2.181.67 3.884.744 1.707.076 2.251.094 6.599.094 4.346 0 4.89-.02 6.597-.094 1.701-.074 2.871-.35 3.884-.744a8.235 8.235 0 0 0 4.665-4.628l.019-.055c.394-1.02.67-2.181.744-3.884.076-1.707.094-2.251.094-6.599 0-4.346-.006-4.89-.08-6.597zM29.1 22.481c-.07 1.565-.332 2.409-.552 2.971a5.346 5.346 0 0 1-3.003 3.029l-.036.013c-.562.218-1.413.48-2.969.548-1.689.076-2.195.094-6.467.094s-4.784-.02-6.467-.094c-1.565-.068-2.409-.33-2.971-.55a4.95 4.95 0 0 1-1.838-1.193l-.001-.001a4.97 4.97 0 0 1-1.183-1.805l-.011-.034c-.22-.562-.48-1.413-.55-2.969-.074-1.689-.094-2.197-.094-6.467 0-4.272.02-4.784.094-6.467.07-1.565.332-2.409.55-2.971a4.882 4.882 0 0 1 1.201-1.839 4.957 4.957 0 0 1 1.841-1.194c.56-.22 1.413-.48 2.969-.55 1.689-.074 2.195-.094 6.467-.094 4.278 0 4.782.02 6.467.094 1.563.07 2.407.332 2.969.55a4.933 4.933 0 0 1 1.841 1.194c.53.52.936 1.144 1.192 1.841.22.56.482 1.411.55 2.969.076 1.689.094 2.195.094 6.467s-.018 4.772-.092 6.459z" style="fill:var(--color2, #f4f4fd)"/>
      <path fill="#f4f4fd" d="M16.067 7.785a8.225 8.225 0 0 0-.009 16.446h.009a8.225 8.225 0 0 0 .009-16.446h-.009zm0 13.56a5.336 5.336 0 1 1 0-10.672 5.336 5.336 0 1 1 0 10.672zM26.535 7.461a1.92 1.92 0 1 1-3.842 0 1.92 1.92 0 1 1 3.842 0z" style="fill:var(--color2, #f4f4fd)"/>
    </symbol>
<symbol id="icon-g-1" viewBox="0 0 30 32">
<path d="M17.639 32c-3.623 0-6.769-0.708-9.437-2.123-2.635-1.416-4.661-3.342-6.077-5.778-1.416-2.469-2.125-5.235-2.125-8.296 0-3.029 0.791-5.745 2.372-8.148 1.614-2.403 3.788-4.28 6.522-5.63 2.767-1.35 5.847-2.025 9.24-2.025 0.003 0 0.005 0 0.008 0 1.623 0 3.208 0.162 4.739 0.47l-0.153-0.026c1.515 0.263 2.734 0.625 3.656 1.086 0.264 0.165 0.428 0.313 0.494 0.444s0.115 0.362 0.148 0.691l0.445 6.123c0 0.132-0.082 0.214-0.247 0.247s-0.28 0-0.346-0.099c-0.988-2.469-2.405-4.379-4.249-5.728s-4.019-2.025-6.522-2.025c-3.492 0-6.209 1.152-8.152 3.457s-2.915 5.416-2.915 9.333c0 3.358 0.609 6.337 1.828 8.938 1.219 2.568 2.899 4.56 5.040 5.975s4.562 2.123 7.263 2.123c1.285 0 2.273-0.165 2.965-0.494s1.186-0.905 1.482-1.728c0.296-0.823 0.445-2.025 0.445-3.605 0-1.646-0.148-2.815-0.445-3.506-0.264-0.724-0.774-1.202-1.532-1.432s-2.009-0.346-3.755-0.346c-0.165 0-0.247-0.132-0.247-0.395s0.066-0.395 0.198-0.395c2.569 0.165 4.743 0.247 6.522 0.247 1.647 0 3.36-0.049 5.139-0.148 0.132 0 0.198 0.115 0.198 0.346 0.033 0.23-0.017 0.346-0.148 0.346-0.494-0.033-0.84 0.049-1.038 0.247-0.198 0.165-0.329 0.494-0.395 0.988s-0.099 1.333-0.099 2.519v2.025c0 1.481 0.049 2.519 0.148 3.111s0.148 1.004 0.148 1.235c0 0.197-0.033 0.329-0.099 0.395-0.033 0.066-0.148 0.132-0.346 0.198-4.084 0.922-7.642 1.383-10.672 1.383z"></path>
</symbol>
<symbol id="icon-Group-85-1-1" viewBox="0 0 32 32">
<path d="M21.431 13.918c0.992-1.002 1.24-2.38 0.553-3.074s-2.053-0.443-3.045 0.559c-0.938 0.947-1.211 2.232-0.656 2.955l-1.295 1.307-0.262-0.265-6.188 6.248 0.744 0.752 6.188-6.248-0.262-0.265 1.295-1.307c0.716 0.56 1.989 0.285 2.927-0.662zM17.012 16.171l-5.71 5.765-0.304-0.306 5.71-5.765 0.304 0.307zM18.625 14.236c-0.565-0.571-0.325-1.742 0.535-2.61s2.020-1.111 2.585-0.54c0.565 0.571 0.326 1.742-0.535 2.61s-2.020 1.111-2.585 0.54z"></path>
</symbol>
<symbol id="icon-Group-83-1" viewBox="0 0 32 32">
<path d="M15.804 2.657c-0.078 0-0.167-0.004-0.265-0.013-0.027-0.002-0.077-0.005-0.126-0.008l-0.016-0.001c-0.056-0.003-0.119-0.004-0.189-0.004l-0.311 0.004c-0.050 0.003-0.122 0.004-0.214 0.004-0.006 0-0.009-0.009-0.009-0.025s0.003-0.025 0.008-0.025c0.087 0 0.15-0.007 0.189-0.021 0.038-0.013 0.067-0.042 0.080-0.079l0-0.001c0.017-0.042 0.024-0.105 0.021-0.19v-1.949c-0.006-0.084-0.017-0.146-0.034-0.185-0.013-0.038-0.042-0.067-0.079-0.080l-0.001-0c-0.039-0.017-0.098-0.025-0.176-0.025-0.005 0-0.008-0.008-0.008-0.025s0.003-0.025 0.008-0.025l0.214 0.004c0.123 0.005 0.224 0.008 0.302 0.008 0.092 0 0.185-0.004 0.277-0.013 0.118-0.005 0.204-0.008 0.26-0.008 0.294 0 0.555 0.055 0.782 0.164 0.227 0.107 0.403 0.257 0.529 0.45s0.189 0.415 0.189 0.665c0 0.27-0.067 0.51-0.202 0.72-0.131 0.208-0.307 0.369-0.525 0.484-0.202 0.109-0.442 0.173-0.696 0.173-0.003 0-0.007 0-0.010-0h0.001zM15.766 2.573c0.196 0 0.367-0.046 0.512-0.139 0.146-0.095 0.258-0.233 0.336-0.413 0.081-0.18 0.122-0.396 0.122-0.648 0-0.216-0.035-0.421-0.105-0.615-0.068-0.195-0.184-0.359-0.334-0.483l-0.002-0.001c-0.151-0.126-0.345-0.189-0.58-0.189-0.112 0-0.188 0.021-0.227 0.063-0.039 0.039-0.059 0.11-0.059 0.21v1.895c0.003 0.115 0.027 0.198 0.071 0.248 0.048 0.048 0.136 0.072 0.265 0.072zM20.843 2.819c0.004-0.002 0.009-0.004 0.014-0.004 0.003 0 0.006 0.001 0.009 0.001l-0-0c0.008 0.002 0.015 0.007 0.022 0.015 0.007 0.005 0.009 0.009 0.005 0.010-0.074 0.155-0.145 0.341-0.201 0.534l-0.007 0.028c-0.007 0.021-0.015 0.036-0.026 0.045-0.011 0.006-0.028 0.005-0.052-0.002l-1.838-0.541c-0.011-0.003-0.014-0.013-0.009-0.029s0.011-0.023 0.019-0.021c0.081 0.024 0.14 0.034 0.179 0.031 0.040-0.001 0.075-0.023 0.095-0.055l0-0.001c0.025-0.034 0.049-0.092 0.073-0.176l0.548-1.871c0.024-0.081 0.034-0.142 0.032-0.184s-0.022-0.077-0.054-0.099l-0-0c-0.033-0.027-0.087-0.052-0.162-0.074-0.008-0.002-0.011-0.012-0.009-0.029 0.005-0.016 0.010-0.023 0.015-0.022l1.737 0.511c0.021 0.006 0.029 0.021 0.021 0.046l-0.148 0.535c-0.002 0.008-0.012 0.010-0.028 0.005-0.014-0.004-0.021-0.009-0.022-0.015-0.002-0.164-0.050-0.307-0.146-0.429-0.092-0.124-0.22-0.21-0.384-0.258l-0.077-0.023c-0.083-0.024-0.146-0.035-0.187-0.033-0.001-0-0.002-0-0.003-0-0.035 0-0.065 0.017-0.084 0.044l-0 0c-0.020 0.029-0.043 0.081-0.067 0.156l-0.242 0.824 0.504 0.148c0.137 0.040 0.245 0.046 0.324 0.016s0.134-0.098 0.166-0.206c0.003-0.011 0.014-0.013 0.033-0.008s0.026 0.015 0.022 0.028l-0.069 0.221c-0.031 0.083-0.064 0.194-0.092 0.307l-0.005 0.024-0.060 0.219c-0.004 0.013-0.014 0.018-0.030 0.013-0.009-0.003-0.016-0.006-0.023-0.011l0 0c-0.004-0.007-0.005-0.013-0.003-0.019 0.034-0.116 0.023-0.214-0.032-0.295-0.052-0.083-0.142-0.143-0.271-0.181l-0.496-0.146-0.267 0.913c-0.032 0.108-0.036 0.183-0.013 0.224 0.025 0.043 0.092 0.080 0.199 0.111l0.113 0.033c0.074 0.023 0.16 0.037 0.249 0.037 0.098 0 0.193-0.016 0.281-0.047l-0.006 0.002c0.182-0.064 0.335-0.17 0.453-0.308l0.001-0.001zM22.428 4.292c-0.005-0.003-0.003-0.012 0.006-0.026s0.016-0.020 0.021-0.017c0.073 0.047 0.13 0.075 0.17 0.085 0.009 0.002 0.019 0.004 0.030 0.004 0.030 0 0.057-0.011 0.077-0.030l-0 0c0.033-0.025 0.073-0.075 0.12-0.148l1.052-1.64c0.046-0.071 0.073-0.126 0.082-0.167 0.002-0.009 0.004-0.020 0.004-0.031 0-0.030-0.011-0.058-0.028-0.080l0 0c-0.024-0.035-0.069-0.075-0.135-0.117-0.007-0.005-0.006-0.014 0.003-0.028s0.017-0.019 0.024-0.014l0.167 0.113c0.101 0.072 0.183 0.128 0.246 0.169s0.151 0.094 0.263 0.159l0.183 0.113c0.005 0.003 0.002 0.012-0.007 0.026s-0.016 0.020-0.021 0.017c-0.073-0.047-0.13-0.074-0.172-0.081-0.008-0.002-0.017-0.003-0.026-0.003-0.031 0-0.059 0.011-0.081 0.029l0-0c-0.031 0.027-0.071 0.076-0.12 0.148l-1.041 1.622c-0.059 0.092-0.085 0.162-0.079 0.209 0.008 0.045 0.048 0.091 0.121 0.138l0.099 0.064c0.191 0.123 0.377 0.183 0.559 0.18 0.186-0.004 0.376-0.072 0.57-0.203 0.002-0 0.004-0.001 0.006-0.001 0.006 0 0.012 0.002 0.016 0.005l-0-0c0.007 0.004 0.013 0.011 0.017 0.021 0.005 0.007 0.007 0.013 0.004 0.018-0.121 0.151-0.245 0.322-0.36 0.498l-0.016 0.025c-0.023 0.035-0.052 0.042-0.087 0.019l-1.668-1.074zM25.746 6.93c-0.004-0.004 0.001-0.012 0.014-0.023s0.021-0.014 0.025-0.010c0.057 0.066 0.102 0.108 0.137 0.126 0.018 0.011 0.041 0.018 0.064 0.018 0.017 0 0.034-0.004 0.049-0.010l-0.001 0c0.039-0.015 0.091-0.051 0.157-0.108l1.47-1.277c0.061-0.053 0.101-0.099 0.12-0.138 0.013-0.019 0.020-0.043 0.020-0.069 0-0.017-0.003-0.033-0.009-0.048l0 0.001c-0.013-0.041-0.046-0.092-0.099-0.153-0.004-0.004-0-0.013 0.011-0.026 0.013-0.011 0.022-0.013 0.027-0.007l0.135 0.162c0.076 0.097 0.139 0.174 0.189 0.231 0.055 0.064 0.127 0.142 0.215 0.237l0.138 0.153c0.004 0.004-0.001 0.012-0.014 0.023s-0.021 0.014-0.025 0.010c-0.055-0.064-0.102-0.105-0.14-0.123-0.018-0.010-0.040-0.015-0.064-0.015-0.019 0-0.037 0.004-0.053 0.011l0.001-0c-0.037 0.017-0.089 0.053-0.157 0.108l-1.464 1.271c-0.063 0.055-0.105 0.101-0.126 0.137-0.010 0.020-0.017 0.044-0.017 0.070 0 0.018 0.003 0.034 0.008 0.050l-0-0.001c0.015 0.039 0.049 0.089 0.102 0.151 0.004 0.004-0.001 0.012-0.013 0.023s-0.021 0.014-0.025 0.010c-0.057-0.066-0.102-0.12-0.135-0.162l-0.198-0.235-0.199-0.223c-0.047-0.050-0.095-0.103-0.141-0.157l-0.005-0.006zM28.126 10.682c-0.129-0.283-0.187-0.555-0.172-0.815 0.015-0.257 0.094-0.484 0.235-0.681 0.144-0.198 0.335-0.352 0.575-0.462 0.232-0.106 0.467-0.14 0.707-0.101 0.242 0.037 0.462 0.139 0.66 0.304 0.201 0.164 0.361 0.377 0.48 0.637 0.055 0.12 0.099 0.248 0.133 0.384 0.037 0.134 0.056 0.244 0.058 0.33-0.001 0.025-0.005 0.043-0.013 0.052-0.015 0.015-0.032 0.028-0.051 0.037l-0.001 0.001-0.487 0.26c-0.010 0.005-0.020 0.001-0.028-0.011s-0.010-0.022-0.005-0.030c0.153-0.178 0.25-0.364 0.29-0.559 0.043-0.196 0.021-0.389-0.066-0.581-0.113-0.248-0.289-0.4-0.527-0.457-0.236-0.059-0.504-0.019-0.805 0.118-0.262 0.12-0.473 0.272-0.633 0.456s-0.258 0.38-0.295 0.589c-0.010 0.053-0.015 0.114-0.015 0.177 0 0.161 0.036 0.313 0.101 0.448l-0.003-0.006c0.042 0.092 0.087 0.156 0.134 0.193 0.050 0.036 0.11 0.048 0.179 0.038 0.073-0.009 0.169-0.041 0.289-0.095 0.125-0.057 0.21-0.11 0.256-0.159 0.035-0.036 0.057-0.086 0.057-0.141 0-0.013-0.001-0.025-0.003-0.038l0 0.001c-0.010-0.069-0.046-0.172-0.108-0.307-0.007-0.015-0-0.028 0.020-0.037 0.006-0.003 0.013-0.005 0.021-0.005 0 0 0 0 0 0v0c0.010 0.002 0.016 0.005 0.019 0.010 0.084 0.218 0.158 0.397 0.222 0.537 0.061 0.133 0.127 0.269 0.2 0.408 0.005 0.010-0.002 0.021-0.018 0.032s-0.027 0.011-0.032 0.001c-0.016-0.042-0.038-0.063-0.065-0.063s-0.082 0.019-0.164 0.057l-0.26 0.119c-0.115 0.053-0.193 0.093-0.235 0.122s-0.073 0.047-0.090 0.055c-0.015 0.007-0.027 0.009-0.034 0.006-0.006 0-0.015-0.007-0.027-0.020-0.22-0.294-0.386-0.563-0.496-0.805zM29.403 15.529c0.001 0.006-0.007 0.010-0.024 0.012s-0.025 0.001-0.026-0.005c-0.008-0.045-0.016-0.111-0.022-0.177l-0.001-0.015-0.041-0.313-0.047-0.299c-0.010-0.053-0.022-0.124-0.035-0.216-0.001-0.006 0.007-0.011 0.023-0.016 0.017-0.002 0.026 0.001 0.027 0.009 0.012 0.086 0.028 0.146 0.047 0.181 0.017 0.035 0.050 0.059 0.089 0.063l0.001 0c0.040 0.005 0.103 0.002 0.189-0.010l0.957-0.138-0.172-1.2-0.956 0.138c-0.083 0.012-0.143 0.028-0.18 0.047-0.035 0.021-0.061 0.055-0.071 0.094l-0 0.001c-0.008 0.041-0.007 0.103 0.005 0.186 0.001 0.008-0.007 0.014-0.023 0.016s-0.025-0.001-0.027-0.009c-0.013-0.092-0.022-0.163-0.026-0.213l-0.040-0.309-0.045-0.287c-0.010-0.052-0.022-0.122-0.034-0.208-0.001-0.008 0.006-0.014 0.023-0.016s0.026 0.001 0.027 0.009c0.012 0.083 0.028 0.142 0.046 0.176 0.017 0.035 0.050 0.059 0.089 0.063l0.001 0c0.041 0.008 0.104 0.006 0.19-0.006l1.926-0.277c0.117-0.014 0.191-0.042 0.221-0.083 0.034-0.042 0.042-0.12 0.026-0.234-0.001-0.008 0.006-0.014 0.023-0.016s0.026 0.001 0.027 0.009l0.025 0.201c0.012 0.123 0.023 0.222 0.034 0.297s0.028 0.176 0.052 0.303l0.035 0.212c0.001 0.006-0.007 0.010-0.024 0.012s-0.025 0.001-0.026-0.005c-0.012-0.083-0.029-0.143-0.051-0.18-0.021-0.035-0.057-0.060-0.098-0.067l-0.001-0c-0.040-0.005-0.102-0.004-0.186 0.005l-0.844 0.122 0.172 1.196 0.844-0.122c0.119-0.017 0.196-0.047 0.229-0.088 0.034-0.039 0.043-0.116 0.027-0.229-0.001-0.006 0.007-0.011 0.023-0.016 0.016-0.002 0.025 0.001 0.027 0.009l0.025 0.205c0.012 0.123 0.024 0.224 0.035 0.301 0.011 0.075 0.028 0.173 0.051 0.295l0.035 0.212c0.001 0.008-0.006 0.014-0.023 0.016s-0.026-0.001-0.027-0.009c-0.012-0.084-0.029-0.143-0.051-0.18-0.019-0.033-0.051-0.057-0.089-0.064l-0.001-0c-0.041-0.008-0.103-0.009-0.187-0.003l-1.925 0.277c-0.080 0.012-0.14 0.028-0.179 0.051-0.035 0.024-0.060 0.060-0.070 0.103l-0 0.001c-0.008 0.044-0.006 0.106 0.006 0.186zM29.233 17.307c0.001-0.008 0.010-0.011 0.027-0.009s0.025 0.006 0.024 0.012c-0.017 0.117-0.022 0.202-0.016 0.257 0.006 0.058 0.027 0.099 0.063 0.124 0.039 0.025 0.1 0.044 0.183 0.056l1.925 0.277c0.097 0.017 0.162 0.013 0.197-0.010 0.037-0.023 0.062-0.073 0.073-0.151l0.008-0.054c0.014-0.094-0.003-0.192-0.052-0.292-0.049-0.106-0.118-0.195-0.202-0.266l-0.001-0.001c-0.084-0.075-0.186-0.131-0.298-0.162l-0.005-0.001c-0.005-0.001-0.007-0.008-0.005-0.022 0.001-0.009 0.004-0.017 0.008-0.025l-0 0c0.006-0.005 0.011-0.006 0.013-0.002 0.103 0.029 0.376 0.090 0.818 0.182 0.008 0.001 0.012 0.009 0.010 0.022-0.001 0.008-0.004 0.015-0.007 0.021l0-0c-0.004 0.008-0.009 0.011-0.014 0.011-0.058-0.009-0.096 0.050-0.114 0.175-0.030 0.139-0.077 0.426-0.119 0.715l-0.015 0.129c-0.022 0.153-0.044 0.324-0.065 0.514l-0.038 0.292c-0.013 0.092-0.016 0.159-0.008 0.203s0.032 0.074 0.072 0.091c0.008 0.007 0.009 0.017 0.004 0.030-0.002 0.017-0.009 0.023-0.020 0.018-0.016-0.008-0.171-0.040-0.327-0.070l-0.131-0.021c-0.182-0.035-0.305-0.055-0.369-0.061-0.008-0.001-0.011-0.010-0.009-0.027 0.003-0.022 0.010-0.033 0.021-0.031 0.030 0.005 0.064 0.007 0.098 0.007 0.082 0 0.161-0.015 0.234-0.043l-0.005 0.002c0.105-0.037 0.194-0.098 0.263-0.178l0.001-0.001c0.071-0.080 0.114-0.173 0.129-0.279l0.008-0.054c0.008-0.056 0.007-0.097-0.003-0.124-0.011-0.024-0.032-0.041-0.065-0.052-0.042-0.013-0.095-0.025-0.149-0.034l-0.008-0.001-1.918-0.272c-0.086-0.012-0.149-0.013-0.191-0.002-0.042 0.014-0.073 0.046-0.094 0.097s-0.041 0.136-0.058 0.255c-0.001 0.008-0.010 0.011-0.027 0.009s-0.024-0.008-0.023-0.016c0.015-0.103 0.028-0.183 0.039-0.241l0.059-0.379 0.047-0.359c0.006-0.062 0.017-0.148 0.033-0.259zM26.305 24.434c0.004-0.004 0.012-0.001 0.025 0.010s0.017 0.019 0.014 0.023c-0.057 0.066-0.092 0.117-0.105 0.154-0.006 0.014-0.010 0.031-0.010 0.048 0 0.024 0.007 0.046 0.018 0.065l-0-0.001c0.021 0.036 0.064 0.083 0.129 0.14l1.47 1.277c0.061 0.053 0.112 0.087 0.153 0.099 0.041 0.017 0.080 0.015 0.116-0.005 0.038-0.019 0.084-0.059 0.137-0.12 0.004-0.004 0.013-0.002 0.027 0.007 0.013 0.011 0.016 0.020 0.011 0.026l-0.141 0.157c-0.085 0.090-0.152 0.163-0.202 0.22-0.055 0.064-0.123 0.146-0.203 0.247l-0.132 0.159c-0.003 0.004-0.012 0.001-0.025-0.010s-0.017-0.019-0.014-0.023c0.055-0.064 0.089-0.116 0.102-0.157 0.005-0.014 0.008-0.029 0.008-0.045 0-0.026-0.007-0.050-0.019-0.071l0 0.001c-0.022-0.034-0.065-0.081-0.129-0.14l-1.464-1.271c-0.064-0.055-0.115-0.090-0.154-0.105-0.015-0.005-0.032-0.008-0.049-0.008-0.025 0-0.049 0.006-0.070 0.017l0.001-0c-0.036 0.020-0.081 0.061-0.134 0.123-0.003 0.004-0.012 0.001-0.025-0.010s-0.017-0.019-0.013-0.023c0.057-0.066 0.104-0.118 0.141-0.156l0.204-0.23 0.192-0.229c0.033-0.042 0.079-0.098 0.14-0.168zM23.3 30.284c-0.007 0.005-0.015-0-0.024-0.014s-0.010-0.024-0.003-0.028c0.097-0.062 0.154-0.146 0.173-0.252 0.017-0.104-0.010-0.213-0.081-0.328l-1.169-1.83c-0.007-0.005-0.005-0.015 0.006-0.029 0.008-0.016 0.020-0.029 0.035-0.038l0-0c0.024-0.015 0.043-0.018 0.060-0.008l2.676 0.909-0.907-1.423c-0.070-0.115-0.156-0.186-0.258-0.215s-0.201-0.010-0.3 0.053c-0.009 0.006-0.019 0.002-0.028-0.012s-0.009-0.024 0-0.030c0.066-0.043 0.117-0.074 0.154-0.094l0.225-0.14 0.21-0.14c0.039-0.028 0.094-0.066 0.167-0.113 0.009-0.006 0.019-0.002 0.028 0.012s0.009 0.024-0.001 0.030c-0.099 0.064-0.155 0.147-0.17 0.249-0.016 0.104 0.011 0.213 0.081 0.328l0.994 1.557c0.117 0.032 0.212 0.045 0.286 0.041 0.071-0.003 0.135-0.022 0.192-0.059 0.005-0.003 0.012 0.002 0.021 0.017s0.011 0.023 0.006 0.026l-0.193 0.119c-0.039 0.022-0.091 0.053-0.154 0.094s-0.116 0.076-0.157 0.106c-0.043 0.031-0.072 0.051-0.086 0.060-0.019 0.012-0.036 0.017-0.052 0.013-0.028-0.005-0.052-0.015-0.074-0.029l0.001 0c-0.039-0.018-0.092-0.039-0.146-0.058l-0.014-0.004-2.122-0.715 0.793 1.251c0.070 0.115 0.156 0.187 0.257 0.215 0.099 0.030 0.199 0.012 0.3-0.053 0.009-0.006 0.019-0.002 0.028 0.012s0.009 0.024-0.001 0.030l-0.14 0.085c-0.107 0.061-0.186 0.109-0.264 0.159l0.022-0.013c-0.050 0.032-0.117 0.079-0.204 0.141l-0.171 0.115zM14.956 30.039c-0.005 0.005-0.012 0.008-0.020 0.008-0 0-0 0-0.001 0h0c-0.009-0-0.018-0.003-0.025-0.008l0 0c-0.009-0.003-0.011-0.006-0.009-0.009 0.027-0.173 0.042-0.373 0.042-0.576 0-0.008-0-0.016-0-0.023v0.001c0-0.022 0.004-0.039 0.012-0.050 0.009-0.009 0.025-0.013 0.050-0.013h1.916c0.011 0 0.017 0.009 0.017 0.025s-0.004 0.025-0.013 0.025c-0.084 0-0.144 0.007-0.181 0.021-0.037 0.012-0.066 0.042-0.075 0.079l-0 0.001c-0.014 0.039-0.021 0.102-0.021 0.189v1.95c0 0.084 0.007 0.146 0.021 0.185s0.041 0.066 0.080 0.080c0.039 0.017 0.098 0.025 0.176 0.025 0.008 0 0.014 0.009 0.017 0.025 0 0.017-0.003 0.025-0.009 0.025h-1.81c-0.023 0-0.034-0.013-0.034-0.038l-0.008-0.556c0-0.008 0.008-0.012 0.025-0.012 0.014 0 0.023 0.003 0.025 0.008 0.048 0.157 0.135 0.281 0.261 0.371 0.123 0.093 0.27 0.139 0.441 0.139h0.080c0.087 0 0.15-0.007 0.189-0.021 0.034-0.009 0.061-0.034 0.071-0.067l0-0.001c0.011-0.034 0.018-0.090 0.021-0.168v-0.859h-0.525c-0.143 0-0.248 0.025-0.315 0.076s-0.101 0.132-0.101 0.244c0 0.011-0.010 0.017-0.029 0.017s-0.029-0.007-0.029-0.021l0.004-0.231c0.003-0.052 0.004-0.112 0.004-0.173s-0.002-0.121-0.005-0.181l0 0.008-0.004-0.228c0-0.014 0.008-0.021 0.025-0.021 0.008 0 0.017 0.002 0.025 0.004 0.006 0.006 0.008 0.011 0.008 0.017 0 0.121 0.038 0.212 0.114 0.274 0.073 0.064 0.176 0.097 0.311 0.097h0.517v-0.952c0-0.112-0.017-0.185-0.050-0.219-0.036-0.034-0.111-0.050-0.223-0.050h-0.118c-0.182 0-0.348 0.052-0.5 0.156-0.151 0.108-0.27 0.252-0.346 0.419l-0.003 0.007zM10.028 30.935c-0.014-0.004-0.018-0.014-0.013-0.030s0.014-0.022 0.027-0.018c0.1 0.029 0.195 0.027 0.287-0.008 0.089-0.035 0.191-0.131 0.307-0.287l1.364-1.815c0.012-0.011 0.034-0.012 0.066-0.002 0.015 0.004 0.027 0.011 0.038 0.020l-0-0c0.013 0.007 0.020 0.013 0.021 0.019l0.363 2.481c0.017 0.122 0.042 0.21 0.076 0.264 0.033 0.057 0.087 0.096 0.162 0.118 0.008 0.002 0.010 0.012 0.005 0.028s-0.010 0.023-0.015 0.022l-0.212-0.067c-0.040-0.016-0.11-0.040-0.181-0.063l-0.030-0.008c-0.102-0.030-0.218-0.061-0.349-0.094l-0.199-0.054c-0.013-0.004-0.018-0.014-0.013-0.030s0.014-0.022 0.027-0.018c0.151 0.044 0.238 0.025 0.262-0.059 0.009-0.030 0.010-0.073 0.003-0.131l-0.269-1.892-0.982 1.335c-0.039 0.053-0.065 0.101-0.077 0.144-0.025 0.084-0.012 0.157 0.036 0.221 0.048 0.067 0.122 0.115 0.224 0.145 0.011 0.003 0.014 0.013 0.009 0.029s-0.012 0.023-0.023 0.019l-0.204-0.064c-0.117-0.040-0.224-0.075-0.32-0.103-0.054-0.016-0.122-0.033-0.204-0.051l-0.187-0.050zM7.544 27.274c-0.002 0-0.004 0.001-0.006 0.001-0.006 0-0.012-0.002-0.016-0.005l0 0c-0.007-0.005-0.013-0.012-0.017-0.021l-0-0c-0.006-0.007-0.007-0.011-0.003-0.012 0.125-0.143 0.243-0.299 0.348-0.465l0.009-0.016c0.009-0.016 0.022-0.028 0.037-0.035l0-0c0.012-0.002 0.028 0.003 0.049 0.017l1.612 1.038c0.009 0.006 0.010 0.016 0.001 0.030s-0.017 0.019-0.024 0.014c-0.071-0.046-0.125-0.072-0.163-0.080-0.009-0.002-0.019-0.004-0.029-0.004-0.030 0-0.057 0.011-0.077 0.030l0-0c-0.033 0.025-0.073 0.075-0.12 0.148l-1.052 1.64c-0.046 0.071-0.073 0.127-0.082 0.167-0.002 0.009-0.004 0.020-0.004 0.031 0 0.030 0.011 0.058 0.028 0.080l-0-0c0.024 0.035 0.069 0.074 0.135 0.117 0.007 0.005 0.007 0.015 0 0.030-0.009 0.014-0.016 0.020-0.021 0.017l-1.523-0.981c-0.019-0.012-0.021-0.029-0.008-0.050l0.293-0.472c0.004-0.007 0.014-0.006 0.028 0.003 0.012 0.008 0.017 0.015 0.017 0.021-0.045 0.158-0.038 0.309 0.019 0.453 0.054 0.145 0.152 0.263 0.296 0.356l0.067 0.043c0.073 0.047 0.13 0.075 0.171 0.085 0.037 0.010 0.069 0.004 0.096-0.018s0.064-0.066 0.109-0.13l0.463-0.722-0.442-0.285c-0.12-0.077-0.222-0.113-0.306-0.107s-0.156 0.056-0.217 0.151c-0.006 0.009-0.017 0.009-0.034-0.002s-0.021-0.022-0.013-0.034l0.128-0.193c0.058-0.081 0.12-0.176 0.177-0.273l0.009-0.017 0.119-0.194c0.008-0.012 0.018-0.013 0.033-0.004 0.007 0.005 0.014 0.011 0.019 0.017l0 0c0.002 0.008 0.001 0.014-0.002 0.019-0.065 0.102-0.082 0.199-0.052 0.292 0.026 0.094 0.096 0.177 0.209 0.25l0.435 0.28 0.513-0.8c0.060-0.094 0.086-0.165 0.076-0.212-0.012-0.048-0.066-0.103-0.16-0.163l-0.099-0.064c-0.133-0.088-0.297-0.14-0.473-0.14-0.011 0-0.022 0-0.034 0.001l0.002-0c-0.196 0.009-0.375 0.071-0.527 0.171l0.004-0.002zM4.847 23.652c-0.005-0.006-0.002-0.015 0.011-0.026 0.011-0.013 0.020-0.016 0.027-0.007l0.451 0.522c0.044 0.051 0.036 0.213-0.023 0.488-0.063 0.274-0.189 0.649-0.378 1.125 0.066 0.046 0.13 0.106 0.193 0.178 0.009 0.011 0.019 0.026 0.029 0.047l0.752-0.654c0.063-0.051 0.106-0.096 0.129-0.134 0.010-0.020 0.017-0.044 0.017-0.070 0-0.018-0.003-0.034-0.008-0.050l0 0.001c-0.017-0.041-0.053-0.093-0.108-0.157-0.007-0.009-0.005-0.018 0.008-0.029 0.011-0.013 0.020-0.016 0.027-0.007 0.062 0.072 0.109 0.128 0.14 0.168l0.2 0.238 0.21 0.236c0.039 0.041 0.089 0.097 0.152 0.169 0.007 0.009 0.006 0.019-0.005 0.032-0.013 0.011-0.023 0.012-0.030 0.004-0.061-0.070-0.111-0.117-0.151-0.142-0.042-0.023-0.082-0.027-0.121-0.012-0.043 0.015-0.096 0.048-0.159 0.099l-1.47 1.277c-0.064 0.055-0.105 0.102-0.123 0.14-0.011 0.018-0.017 0.040-0.017 0.063 0 0.019 0.004 0.037 0.012 0.054l-0-0.001c0.015 0.043 0.050 0.097 0.107 0.163 0.007 0.009 0.005 0.018-0.008 0.029s-0.023 0.012-0.030 0.004l-0.142-0.171c-0.077-0.097-0.14-0.175-0.192-0.235-0.062-0.072-0.135-0.147-0.216-0.225-0.041-0.041-0.081-0.082-0.119-0.125l-0.003-0.003c-0.185-0.214-0.289-0.405-0.311-0.572-0.024-0.169 0.027-0.308 0.152-0.416 0.091-0.079 0.206-0.125 0.343-0.137 0.027-0.003 0.058-0.004 0.090-0.004 0.118 0 0.231 0.021 0.336 0.060l-0.007-0.002c0.13-0.403 0.224-0.729 0.281-0.98 0.054-0.251 0.078-0.45 0.072-0.598-0.009-0.148-0.049-0.262-0.118-0.343zM5.069 26.056c-0.021-0.038-0.044-0.071-0.071-0.101l0 0c-0.121-0.14-0.237-0.212-0.348-0.216-0.113-0.006-0.241 0.053-0.385 0.178-0.15 0.13-0.235 0.256-0.253 0.376-0.022 0.12 0.003 0.222 0.077 0.307 0.050 0.057 0.088 0.093 0.114 0.107 0.025 0.016 0.055 0.016 0.089 0 0.031-0.016 0.082-0.053 0.154-0.111l0.622-0.541zM0.925 21.542c-0.006-0.013-0.001-0.023 0.014-0.030s0.026-0.004 0.032 0.009c0.041 0.089 0.114 0.159 0.22 0.209 0.102 0.049 0.243 0.080 0.422 0.094l0.901 0.050 0.89-0.407c0.079-0.036 0.134-0.069 0.163-0.098 0.022-0.025 0.036-0.058 0.036-0.094 0-0.008-0.001-0.016-0.002-0.024l0 0.001c-0.006-0.047-0.030-0.116-0.072-0.208-0.005-0.010 0.001-0.019 0.016-0.026s0.025-0.005 0.030 0.005c0.041 0.089 0.071 0.159 0.091 0.209l0.134 0.304 0.149 0.316c0.026 0.050 0.059 0.118 0.098 0.205 0.005 0.010-0.001 0.019-0.016 0.026s-0.025 0.005-0.030-0.005c-0.042-0.092-0.079-0.157-0.112-0.194-0.035-0.036-0.074-0.054-0.116-0.053-0.044-0.002-0.104 0.017-0.179 0.054l-0.835 0.387-0.647 1.032c-0.066 0.104-0.108 0.195-0.126 0.271-0.019 0.073-0.015 0.138 0.010 0.194 0.005 0.010-0.001 0.019-0.016 0.026-0.014 0.010-0.023 0.011-0.026 0.003l-0.087-0.201c-0.040-0.106-0.071-0.178-0.102-0.249l0.013 0.031c-0.067-0.146-0.113-0.239-0.161-0.331l0.022 0.047-0.093-0.194c-0.004-0.008-0-0.014 0.010-0.018 0.005-0.002 0.011-0.004 0.018-0.004 0.003 0 0.006 0 0.009 0.001l-0-0c0.006 0 0.011 0.003 0.013 0.008 0.030 0.066 0.057 0.113 0.082 0.139 0.023 0.023 0.046 0.030 0.069 0.019s0.046-0.037 0.071-0.078l0.617-0.977-0.864-0.040c-0.061 0-0.112 0.010-0.153 0.029-0.055 0.023-0.096 0.069-0.113 0.125l-0 0.001c-0.018 0.055-0.010 0.119 0.023 0.193 0.004 0.010-0.001 0.019-0.016 0.026s-0.025 0.007-0.028-0.001l-0.090-0.209c-0.062-0.158-0.105-0.256-0.149-0.353l0.022 0.055c-0.028-0.060-0.053-0.108-0.080-0.154l0.005 0.009-0.063-0.128zM1.334 13.613c0.062-0.232 0.166-0.41 0.314-0.533 0.145-0.124 0.312-0.172 0.5-0.145 0.147 0.021 0.275 0.088 0.372 0.185l0 0c0.104 0.103 0.18 0.235 0.228 0.395 0.045 0.16 0.054 0.332 0.027 0.519-0.011 0.078-0.028 0.166-0.051 0.265-0.009 0.038-0.018 0.087-0.029 0.145-0.011 0.055-0.021 0.117-0.031 0.187l-0.039 0.301c-0.005 0.053-0.014 0.127-0.028 0.221-0.001 0.005-0.009 0.007-0.026 0.005s-0.025-0.007-0.024-0.012c0.011-0.080 0.013-0.141 0.005-0.182-0.009-0.042-0.035-0.078-0.070-0.099l-0.001-0c-0.036-0.022-0.096-0.039-0.179-0.051l-1.925-0.278c-0.080-0.012-0.141-0.012-0.182-0.001-0.042 0.007-0.077 0.034-0.095 0.071l-0 0.001c-0.022 0.036-0.039 0.095-0.051 0.176-0.001 0.006-0.009 0.007-0.026 0.005s-0.024-0.007-0.024-0.012l0.036-0.22c0.023-0.121 0.040-0.22 0.051-0.295 0.011-0.078 0.019-0.159 0.022-0.244 0.001-0.028 0.004-0.070 0.010-0.126s0.011-0.105 0.017-0.147c0.037-0.261 0.112-0.456 0.224-0.585 0.112-0.131 0.256-0.184 0.43-0.159 0.133 0.019 0.247 0.081 0.343 0.185s0.163 0.248 0.202 0.429zM0.209 13.817c-0.011 0.081 0 0.139 0.034 0.175s0.104 0.062 0.21 0.077l0.79 0.114 0.029-0.17c0.021-0.15-0.016-0.273-0.112-0.369-0.099-0.099-0.232-0.161-0.398-0.185-0.158-0.023-0.284-0.003-0.378 0.060-0.096 0.060-0.154 0.159-0.174 0.298zM2.674 14.091c0.029-0.197 0.001-0.349-0.083-0.454s-0.221-0.172-0.413-0.2c-0.214-0.031-0.39-0.002-0.53 0.085s-0.226 0.241-0.257 0.461c-0.012 0.080-0.019 0.153-0.023 0.218l1.002 0.144c0.097 0.014 0.167 0.006 0.212-0.025s0.075-0.107 0.092-0.229zM3.641 10.841c-0.002 0.005-0.011 0.004-0.026-0.003s-0.022-0.013-0.019-0.018c0.036-0.079 0.055-0.138 0.058-0.177 0-0.004 0.001-0.009 0.001-0.014 0-0.036-0.015-0.069-0.040-0.092l-0-0c-0.030-0.029-0.084-0.062-0.163-0.098l-1.77-0.81c-0.074-0.034-0.132-0.051-0.175-0.052-0.005-0.001-0.012-0.001-0.018-0.001-0.036 0-0.068 0.015-0.091 0.039l-0 0c-0.032 0.029-0.064 0.080-0.098 0.154-0.002 0.005-0.012 0.005-0.028 0.001-0.015-0.007-0.021-0.014-0.018-0.022l0.091-0.19c0.056-0.11 0.1-0.199 0.131-0.268 0.035-0.077 0.077-0.175 0.125-0.295l0.082-0.189c0.002-0.005 0.011-0.004 0.026 0.003s0.022 0.013 0.020 0.018c-0.035 0.077-0.053 0.136-0.054 0.179-0 0.002-0 0.004-0 0.007 0 0.040 0.017 0.076 0.043 0.101l0 0c0.031 0.027 0.085 0.059 0.163 0.098l1.762 0.806c0.076 0.035 0.135 0.054 0.177 0.058 0.002 0 0.004 0 0.006 0 0.041 0 0.078-0.016 0.106-0.042l-0 0c0.029-0.030 0.060-0.082 0.094-0.156 0.002-0.005 0.011-0.004 0.026 0.003s0.022 0.013 0.019 0.018c-0.036 0.079-0.066 0.142-0.091 0.19l-0.131 0.278-0.12 0.274c-0.020 0.050-0.048 0.117-0.087 0.201zM5.474 7.711c-0.005 0.007-0.014 0.004-0.027-0.007s-0.017-0.019-0.014-0.023c0.077-0.089 0.128-0.158 0.152-0.208 0.026-0.051 0.031-0.098 0.014-0.138-0.019-0.043-0.060-0.091-0.124-0.147l-1.47-1.277c-0.072-0.067-0.129-0.099-0.171-0.098-0.044-0.001-0.091 0.029-0.142 0.088l-0.036 0.042c-0.062 0.072-0.101 0.163-0.115 0.274-0.005 0.032-0.007 0.069-0.007 0.107 0 0.081 0.013 0.16 0.036 0.234l-0.002-0.005c0.032 0.113 0.088 0.213 0.167 0.301 0.004 0.004 0.002 0.011-0.007 0.021-0.006 0.006-0.012 0.012-0.019 0.016l-0 0c-0.008 0.001-0.012-0.001-0.012-0.005-0.071-0.080-0.268-0.279-0.591-0.596-0.006-0.005-0.005-0.014 0.004-0.024 0.005-0.006 0.010-0.010 0.017-0.013l0-0c0.007-0.005 0.013-0.005 0.018-0.001 0.045 0.039 0.108 0.010 0.191-0.085 0.155-0.166 0.344-0.379 0.568-0.638 0.101-0.117 0.212-0.249 0.332-0.397l0.189-0.226c0.061-0.070 0.099-0.126 0.116-0.167 0.007-0.014 0.011-0.031 0.011-0.048 0-0.025-0.008-0.049-0.022-0.068l0 0c-0.003-0.010 0.002-0.019 0.013-0.028 0.011-0.013 0.020-0.014 0.026-0.005 0.088 0.087 0.2 0.196 0.336 0.325 0.134 0.128 0.226 0.212 0.277 0.252 0.006 0.005 0.004 0.015-0.007 0.027-0.015 0.017-0.026 0.022-0.035 0.014-0.080-0.071-0.18-0.123-0.289-0.148l-0.004-0.001c-0.044-0.011-0.094-0.018-0.145-0.018-0.062 0-0.121 0.009-0.177 0.027l0.004-0.001c-0.103 0.029-0.19 0.084-0.259 0.165l-0.036 0.042c-0.037 0.042-0.058 0.078-0.064 0.106-0.004 0.026 0.005 0.053 0.026 0.079 0.020 0.024 0.057 0.062 0.113 0.114l1.466 1.268c0.066 0.057 0.119 0.092 0.159 0.105 0.043 0.011 0.087 0.001 0.132-0.030s0.107-0.092 0.186-0.183c0.006-0.006 0.015-0.004 0.027 0.007s0.016 0.020 0.011 0.026c-0.068 0.078-0.122 0.139-0.163 0.182l-0.254 0.287-0.233 0.277c-0.038 0.048-0.094 0.115-0.167 0.2zM9.211 3.662c0.002-0.008 0.006-0.015 0.013-0.019l0-0c0.007-0.004 0.015-0.007 0.024-0.007 0.001 0 0.001 0 0.002 0h-0c0.009-0.002 0.012-0.001 0.012 0.003 0.075 0.169 0.171 0.344 0.287 0.526 0.012 0.019 0.018 0.035 0.017 0.049-0.002 0.012-0.014 0.024-0.036 0.038l-1.612 1.038c-0.009 0.006-0.019 0.002-0.028-0.012s-0.010-0.024-0.003-0.028c0.071-0.045 0.118-0.084 0.141-0.115 0.016-0.020 0.026-0.045 0.026-0.073 0-0.013-0.002-0.025-0.006-0.036l0 0.001c-0.009-0.041-0.037-0.098-0.084-0.171l-1.052-1.64c-0.046-0.071-0.085-0.119-0.118-0.145-0.021-0.017-0.049-0.028-0.079-0.028-0.011 0-0.022 0.001-0.032 0.004l0.001-0c-0.042 0.007-0.096 0.032-0.162 0.075-0.007 0.004-0.016 0-0.028-0.012-0.009-0.014-0.011-0.023-0.007-0.026l1.523-0.981c0.019-0.012 0.035-0.008 0.049 0.014l0.307 0.463c0.004 0.007-0 0.015-0.014 0.024-0.012 0.008-0.020 0.010-0.026 0.007-0.125-0.106-0.265-0.163-0.419-0.171-0.153-0.011-0.302 0.030-0.446 0.122l-0.067 0.043c-0.073 0.047-0.122 0.087-0.148 0.12-0.017 0.018-0.027 0.042-0.027 0.069 0 0.009 0.001 0.018 0.004 0.027l-0-0.001c0.009 0.034 0.033 0.085 0.073 0.153l0.463 0.723 0.442-0.284c0.12-0.077 0.195-0.156 0.224-0.235s0.014-0.166-0.047-0.26c-0.006-0.009-0.001-0.020 0.016-0.030s0.028-0.010 0.036 0.002l0.121 0.197c0.066 0.115 0.128 0.209 0.194 0.301l-0.007-0.011 0.126 0.189c0.008 0.012 0.004 0.022-0.010 0.031-0.007 0.004-0.015 0.008-0.023 0.010l-0.001 0c-0.008-0.002-0.013-0.005-0.016-0.010-0.065-0.102-0.146-0.158-0.243-0.169-0.096-0.015-0.201 0.014-0.313 0.087l-0.435 0.28 0.513 0.8c0.060 0.094 0.114 0.147 0.16 0.157 0.049 0.009 0.121-0.018 0.215-0.078l0.099-0.064c0.15-0.096 0.266-0.234 0.335-0.396l0.002-0.006c0.048-0.116 0.076-0.25 0.076-0.39 0-0.055-0.004-0.109-0.013-0.162l0.001 0.006z"></path>
</symbol>
<symbol id="icon-Group-80-1" viewBox="0 0 33 32">
<path d="M28.893 10.252c2.263-2.285 2.829-5.431 1.262-7.013s-4.683-1.011-6.947 1.274c-2.14 2.161-2.762 5.093-1.497 6.742l-2.954 2.983-0.598-0.604-14.117 14.254 1.699 1.715 14.117-14.254-0.598-0.604 2.954-2.983c1.634 1.278 4.537 0.651 6.678-1.511zM18.811 15.391l-13.027 13.153-0.693-0.699 13.027-13.153 0.693 0.699zM22.491 10.976c-1.29-1.303-0.742-3.974 1.22-5.956s4.609-2.534 5.899-1.232c1.29 1.302 0.743 3.974-1.22 5.956s-4.608 2.534-5.899 1.232z"></path>
<path d="M10.038 4.511c-2.26-2.288-5.372-2.86-6.937-1.276s-1 4.735 1.26 7.023c2.138 2.164 5.037 2.792 6.669 1.513l2.95 2.986-0.597 0.605 14.098 14.273 1.696-1.717-14.098-14.273-0.597 0.604-2.95-2.986c1.264-1.653 0.644-4.587-1.494-6.752zM15.122 14.704l13.009 13.171-0.692 0.7-13.009-13.171 0.692-0.7zM10.754 10.983c-1.288 1.304-3.93 0.751-5.89-1.234s-2.506-4.659-1.219-5.963c1.288-1.304 3.93-0.751 5.891 1.234s2.506 4.659 1.218 5.963z"></path>
</symbol>
<symbol id="icon-play" viewBox="0 0 26 32">
<path d="M26.487 16.002l-26.487 16.002v-32.005l26.487 16.002z"></path>
</symbol>
</defs>
</svg>
