<svg aria-hidden="true" style="position: absolute; width: 0; height: 0; overflow: hidden;" version="1.1" xmlns="http://www.w3.org/2000/svg" xmlns:xlink="http://www.w3.org/1999/xlink">
<defs>
<symbol id="icon-G-1" viewBox="0 0 30 32">
<path d="M17.639 32c-3.623 0-6.769-0.708-9.437-2.123-2.635-1.416-4.661-3.342-6.077-5.778-1.416-2.469-2.125-5.235-2.125-8.296 0-3.029 0.791-5.745 2.372-8.148 1.614-2.403 3.788-4.28 6.522-5.63 2.767-1.35 5.847-2.025 9.24-2.025 0.003 0 0.005 0 0.008 0 1.623 0 3.208 0.162 4.739 0.47l-0.153-0.026c1.515 0.263 2.734 0.625 3.656 1.086 0.264 0.165 0.428 0.313 0.494 0.444s0.115 0.362 0.148 0.691l0.445 6.123c0 0.132-0.082 0.214-0.247 0.247s-0.28 0-0.346-0.099c-0.988-2.469-2.405-4.379-4.249-5.728s-4.019-2.025-6.522-2.025c-3.492 0-6.209 1.152-8.152 3.457s-2.915 5.416-2.915 9.333c0 3.358 0.609 6.337 1.828 8.938 1.219 2.568 2.899 4.56 5.040 5.975s4.562 2.123 7.263 2.123c1.285 0 2.273-0.165 2.965-0.494s1.186-0.905 1.482-1.728c0.296-0.823 0.445-2.025 0.445-3.605 0-1.646-0.148-2.815-0.445-3.506-0.264-0.724-0.774-1.202-1.532-1.432s-2.009-0.346-3.755-0.346c-0.165 0-0.247-0.132-0.247-0.395s0.066-0.395 0.198-0.395c2.569 0.165 4.743 0.247 6.522 0.247 1.647 0 3.36-0.049 5.139-0.148 0.132 0 0.198 0.115 0.198 0.346 0.033 0.23-0.017 0.346-0.148 0.346-0.494-0.033-0.84 0.049-1.038 0.247-0.198 0.165-0.329 0.494-0.395 0.988s-0.099 1.333-0.099 2.519v2.025c0 1.481 0.049 2.519 0.148 3.111s0.148 1.004 0.148 1.235c0 0.197-0.033 0.329-0.099 0.395-0.033 0.066-0.148 0.132-0.346 0.198-4.084 0.922-7.642 1.383-10.672 1.383z"></path>
</symbol>
</defs>
</svg>
